<?xml version="1.0" encoding="UTF-8" standalone="no"?>
<!-- Created with Inkscape (http://www.inkscape.org/) -->

<svg
   xmlns:dc="http://purl.org/dc/elements/1.1/"
   xmlns:cc="http://creativecommons.org/ns#"
   xmlns:rdf="http://www.w3.org/1999/02/22-rdf-syntax-ns#"
   xmlns:svg="http://www.w3.org/2000/svg"
   xmlns="http://www.w3.org/2000/svg"
   xmlns:sodipodi="http://sodipodi.sourceforge.net/DTD/sodipodi-0.dtd"
   xmlns:inkscape="http://www.inkscape.org/namespaces/inkscape"
   id="svg2"
   version="1.1"
   inkscape:version="0.91 r13725"
   xml:space="preserve"
   width="876.09698"
   height="250.42999"
   viewBox="0 0 876.09698 250.42999"
   sodipodi:docname="flag_yellow_eps-text.svg"><metadata
     id="metadata8"><rdf:RDF><cc:Work
         rdf:about=""><dc:format>image/svg+xml</dc:format><dc:type
           rdf:resource="http://purl.org/dc/dcmitype/StillImage" /><dc:title></dc:title></cc:Work></rdf:RDF></metadata><defs
     id="defs6" /><sodipodi:namedview
     pagecolor="#ffffff"
     bordercolor="#666666"
     borderopacity="1"
     objecttolerance="10"
     gridtolerance="10"
     guidetolerance="10"
     inkscape:pageopacity="0"
     inkscape:pageshadow="2"
     inkscape:window-width="1920"
     inkscape:window-height="1029"
     id="namedview4"
     showgrid="false"
     fit-margin-top="0"
     fit-margin-left="0"
     fit-margin-right="0"
     fit-margin-bottom="0"
     inkscape:zoom="1.7938242"
     inkscape:cx="574.098"
     inkscape:cy="115.88463"
     inkscape:window-x="0"
     inkscape:window-y="0"
     inkscape:window-maximized="1"
     inkscape:current-layer="g12" /><g
     id="g10"
     inkscape:groupmode="layer"
     inkscape:label="ink_ext_XXXXXX"
     transform="matrix(1.25,0,0,-1.25,-21.610625,638.75621)"><g
       id="g12"
       transform="scale(0.1,0.1)"><path
         d="m 172.885,3106.6097 2949.45,0 0,2003.44 -2949.45,0 0,-2003.44 z"
         style="fill:#ffffff;fill-opacity:1;fill-rule:nonzero;stroke:none"
         id="path14"
         inkscape:connector-curvature="0" /><path
         d="m 229.605,3164.4197 2836.01,0 0,1890.7 -2836.01,0 0,-1890.7 z"
         style="fill:#254aa5;fill-opacity:1;fill-rule:nonzero;stroke:none"
         id="path16"
         inkscape:connector-curvature="0" /><path
         d="m 1587.175,4643.1697 59.84,43.67 59.85,-43.67 -22.77,70.63 60.78,43.67 -74.93,0 -22.93,71.48 -22.92,-71.56 -74.88,0.08 60.73,-43.67 -22.77,-70.63"
         style="fill:#fff200;fill-opacity:1;fill-rule:nonzero;stroke:none"
         id="path18"
         inkscape:connector-curvature="0" /><path
         d="m 1277.485,4559.9697 59.85,43.67 59.81,-43.67 -22.74,70.62 60.74,43.67 -74.92,0 -22.93,71.57 -22.93,-71.64 -74.88,0.07 60.74,-43.67 -22.74,-70.62"
         style="fill:#fff200;fill-opacity:1;fill-rule:nonzero;stroke:none"
         id="path20"
         inkscape:connector-curvature="0" /><path
         d="m 1110.735,4518.7197 -22.93,-71.64 -74.88,0.08 60.74,-43.68 -22.77,-70.62 59.84,43.67 59.84,-43.67 -22.77,70.62 60.74,43.68 -74.88,0 -22.93,71.56"
         style="fill:#fff200;fill-opacity:1;fill-rule:nonzero;stroke:none"
         id="path22"
         inkscape:connector-curvature="0" /><path
         d="m 1027.605,4067.2297 59.81,-43.67 -22.74,70.63 60.75,43.67 -74.89,0 -22.93,71.56 -22.93,-71.72 -74.92,0.16 60.78,-43.67 -22.77,-70.63 59.84,43.67"
         style="fill:#fff200;fill-opacity:1;fill-rule:nonzero;stroke:none"
         id="path24"
         inkscape:connector-curvature="0" /><path
         d="m 1133.665,3827.6197 -22.93,71.57 -22.93,-71.64 -74.88,0.07 60.74,-43.67 -22.77,-70.62 59.84,43.75 59.84,-43.75 -22.77,70.62 60.74,43.67 -74.88,0"
         style="fill:#fff200;fill-opacity:1;fill-rule:nonzero;stroke:none"
         id="path26"
         inkscape:connector-curvature="0" /><path
         d="m 1360.695,3600.5897 -22.93,71.49 -22.89,-71.57 -74.93,0.08 60.75,-43.67 -22.73,-70.62 59.84,43.67 59.8,-43.67 -22.73,70.62 60.74,43.67 -74.92,0"
         style="fill:#fff200;fill-opacity:1;fill-rule:nonzero;stroke:none"
         id="path28"
         inkscape:connector-curvature="0" /><path
         d="m 1669.985,3518.3297 -22.92,71.56 -22.89,-71.64 -74.92,0.08 60.73,-43.67 -22.73,-70.63 59.85,43.67 59.8,-43.67 -22.77,70.63 60.78,43.67 -74.93,0"
         style="fill:#fff200;fill-opacity:1;fill-rule:nonzero;stroke:none"
         id="path30"
         inkscape:connector-curvature="0" /><path
         d="m 1979.285,3600.5897 -22.89,71.49 -22.97,-71.57 -74.84,0.08 60.7,-43.67 -22.73,-70.62 59.84,43.67 59.84,-43.67 -22.81,70.62 60.79,43.67 -74.93,0"
         style="fill:#fff200;fill-opacity:1;fill-rule:nonzero;stroke:none"
         id="path32"
         inkscape:connector-curvature="0" /><path
         d="m 2206.395,3827.6197 -22.97,71.57 -22.96,-71.64 -74.85,0.07 60.78,-43.67 -22.81,-70.62 59.84,43.75 59.84,-43.75 -22.8,70.62 60.77,43.67 -74.84,0"
         style="fill:#fff200;fill-opacity:1;fill-rule:nonzero;stroke:none"
         id="path34"
         inkscape:connector-curvature="0" /><path
         d="m 2363.505,4138.7197 -74.92,0 -22.97,71.56 -22.89,-71.64 -74.92,0.08 60.78,-43.67 -22.73,-70.63 59.76,43.75 59.85,-43.75 -22.74,70.63 60.78,43.67"
         style="fill:#fff200;fill-opacity:1;fill-rule:nonzero;stroke:none"
         id="path36"
         inkscape:connector-curvature="0" /><path
         d="m 2123.585,4333.7997 59.84,43.67 59.84,-43.67 -22.8,70.62 60.77,43.59 -74.84,0 -22.97,71.57 -22.96,-71.64 -74.85,0.07 60.78,-43.59 -22.81,-70.62"
         style="fill:#fff200;fill-opacity:1;fill-rule:nonzero;stroke:none"
         id="path38"
         inkscape:connector-curvature="0" /><path
         d="m 1957.255,4745.7497 -22.89,-71.64 -74.92,0.15 60.7,-43.75 -22.73,-70.62 59.92,43.75 59.77,-43.75 -22.74,70.62 60.78,43.75 -75,0 -22.89,71.49"
         style="fill:#fff200;fill-opacity:1;fill-rule:nonzero;stroke:none"
         id="path40"
         inkscape:connector-curvature="0" /><text
         xml:space="preserve"
         style="font-style:normal;font-weight:normal;font-size:300px;line-height:125%;font-family:sans-serif;letter-spacing:0px;word-spacing:0px;fill:#000000;fill-opacity:1;stroke:none;stroke-width:1px;stroke-linecap:butt;stroke-linejoin:miter;stroke-opacity:1"
         x="3256.8853"
         y="-4326.8887"
         id="text4168"
         sodipodi:linespacing="125%"
         transform="scale(1,-1)"><tspan
           sodipodi:role="line"
           id="tspan4170"
           x="3256.8853"
           y="-4326.8887">Co-financed by the </tspan><tspan
           sodipodi:role="line"
           x="3256.8853"
           y="-3951.8887"
           id="tspan4174">Horizon 2020 programme</tspan><tspan
           sodipodi:role="line"
           x="3256.8853"
           y="-3576.8887"
           id="tspan4178">of the European Union</tspan></text>
</g></g></svg>