<?xml version="1.0" encoding="UTF-8" standalone="no"?>
<!-- Created with Inkscape (http://www.inkscape.org/) -->

<svg
   xmlns:dc="http://purl.org/dc/elements/1.1/"
   xmlns:cc="http://creativecommons.org/ns#"
   xmlns:rdf="http://www.w3.org/1999/02/22-rdf-syntax-ns#"
   xmlns:svg="http://www.w3.org/2000/svg"
   xmlns="http://www.w3.org/2000/svg"
   xmlns:sodipodi="http://sodipodi.sourceforge.net/DTD/sodipodi-0.dtd"
   xmlns:inkscape="http://www.inkscape.org/namespaces/inkscape"
   width="28.890011mm"
   height="21.159826mm"
   viewBox="0 0 102.36618 74.975762"
   id="svg2"
   version="1.1"
   inkscape:version="0.91 r13725"
   sodipodi:docname="coil.svg">
  <defs
     id="defs4" />
  <sodipodi:namedview
     id="base"
     pagecolor="#ffffff"
     bordercolor="#666666"
     borderopacity="1.0"
     inkscape:pageopacity="1"
     inkscape:pageshadow="2"
     inkscape:zoom="1.979899"
     inkscape:cx="121.90772"
     inkscape:cy="165.97588"
     inkscape:document-units="px"
     inkscape:current-layer="layer1"
     showgrid="false"
     fit-margin-top="0"
     fit-margin-left="0"
     fit-margin-right="0"
     fit-margin-bottom="0"
     inkscape:window-width="1920"
     inkscape:window-height="922"
     inkscape:window-x="0"
     inkscape:window-y="0"
     inkscape:window-maximized="1" />
  <metadata
     id="metadata7">
    <rdf:RDF>
      <cc:Work
         rdf:about="">
        <dc:format>image/svg+xml</dc:format>
        <dc:type
           rdf:resource="http://purl.org/dc/dcmitype/StillImage" />
        <dc:title></dc:title>
      </cc:Work>
    </rdf:RDF>
  </metadata>
  <g
     inkscape:label="Layer 1"
     inkscape:groupmode="layer"
     id="layer1"
     transform="translate(-201.67526,-719.84148)">
    <path
       style="fill:#000000"
       d=""
       id="path3421"
       inkscape:connector-curvature="0" />
    <path
       style="fill:#000000"
       d=""
       id="path3417"
       inkscape:connector-curvature="0" />
    <path
       style="fill:#000000"
       d=""
       id="path3415"
       inkscape:connector-curvature="0" />
    <path
       style="fill:#000000"
       d=""
       id="path3413"
       inkscape:connector-curvature="0" />
    <path
       style="fill:#000000"
       d=""
       id="path3411"
       inkscape:connector-curvature="0" />
    <path
       style="fill:#000000"
       d=""
       id="path3409"
       inkscape:connector-curvature="0" />
    <path
       style="fill:#ffffff"
       d="m 292.68327,793.40873 c -1.62592,-1.95911 -0.52165,-6.60475 2.39342,-10.06913 l 2.40101,-2.85343 -2.63063,-1.7345 c -1.44684,-0.95398 -3.57984,-1.73729 -4.74,-1.74068 -2.06205,-0.006 -5.85937,2.94496 -5.85937,4.55348 0,0.44531 -1.11222,1.92187 -2.47159,3.28125 -3.43421,3.43421 -8.66316,3.39151 -13.04722,-0.10654 -2.87383,-2.29303 -3.23114,-3.0742 -3.23116,-7.06423 -3e-5,-4.14477 -0.138,-4.41227 -1.8134,-3.51563 -3.08427,1.65066 -8.62895,1.12224 -11.95034,-1.13889 -2.89605,-1.97156 -3.0989,-2.45884 -3.10488,-7.45841 l -0.006,-5.34904 -3.86787,1.36467 c -5.52009,1.9476 -6.8921,1.73763 -10.74379,-1.6442 -3.38009,-2.96776 -3.41912,-3.08324 -2.85765,-8.45509 l 0.56924,-5.44624 -2.75341,1.42385 c -4.33495,2.24169 -9.72143,1.82877 -13.08709,-1.00325 -3.10846,-2.61559 -3.56111,-5.0696 -1.96296,-10.64201 1.13258,-3.94908 0.7492,-4.42575 -2.00694,-2.49527 -3.10688,2.17614 -7.98098,1.95514 -9.25184,-0.41949 -2.20092,-4.11246 -0.81733,-6.78439 5.18106,-10.00541 7.55622,-4.05754 11.61669,-4.06446 15.46454,-0.0264 2.60114,2.72975 2.87442,3.5593 2.62564,7.97003 -0.15272,2.70774 -0.22043,4.92258 -0.15047,4.92188 0.07,-7e-4 1.33559,-0.63149 2.8125,-1.40175 4.17091,-2.17528 9.90099,-1.80851 12.97199,0.83032 2.43501,2.09234 2.58187,2.62542 2.19537,7.96875 -0.22782,3.14952 -0.26502,5.7264 -0.0827,5.7264 0.18235,0 1.98543,-0.84375 4.00685,-1.875 4.68765,-2.39146 7.91704,-2.37328 11.33965,0.0638 3.12961,2.22848 3.52254,5.53167 1.38641,11.65492 -0.71952,2.0625 -1.16785,3.89297 -0.9963,4.06771 0.17156,0.17475 1.91922,-0.77447 3.88371,-2.10937 4.15246,-2.82167 7.83576,-3.07996 11.66496,-0.818 3.53174,2.08625 4.06849,4.02631 2.69637,9.74594 -0.61797,2.57602 -0.97058,4.82339 -0.78357,4.99415 0.18701,0.17077 2.87127,-0.51059 5.96502,-1.51413 6.19428,-2.00927 10.44561,-1.78735 17.16231,0.89586 l 4.0373,1.61284 -0.57385,5.625 c -0.86351,8.46436 -3.70532,13.59375 -7.53127,13.59375 -1.14601,0 -2.60972,-0.63386 -3.25267,-1.40858 z"
       id="path3405"
       inkscape:connector-curvature="0" />
    <path
       style="fill:#000000"
       d=""
       id="path3403"
       inkscape:connector-curvature="0" />
    <path
       style="fill:#000000"
       d=""
       id="path3401"
       inkscape:connector-curvature="0" />
  </g>
</svg>
