<?xml version="1.0" encoding="UTF-8" standalone="no"?>
<svg
   xmlns:dc="http://purl.org/dc/elements/1.1/"
   xmlns:cc="http://creativecommons.org/ns#"
   xmlns:rdf="http://www.w3.org/1999/02/22-rdf-syntax-ns#"
   xmlns:svg="http://www.w3.org/2000/svg"
   xmlns="http://www.w3.org/2000/svg"
   xmlns:sodipodi="http://sodipodi.sourceforge.net/DTD/sodipodi-0.dtd"
   xmlns:inkscape="http://www.inkscape.org/namespaces/inkscape"
   id="svg2"
   xml:space="preserve"
   height="320.91"
   viewBox="0 0 996.86914 320.91439"
   width="996.87"
   version="1.1"
   y="0px"
   x="0px"
   inkscape:version="0.91 r13725"
   sodipodi:docname="Zymvol-Logo-White-Legend.svg"><metadata
     id="metadata121"><rdf:RDF><cc:Work
         rdf:about=""><dc:format>image/svg+xml</dc:format><dc:type
           rdf:resource="http://purl.org/dc/dcmitype/StillImage" /></cc:Work></rdf:RDF></metadata><defs
     id="defs119" /><sodipodi:namedview
     pagecolor="#ffffff"
     bordercolor="#666666"
     borderopacity="1"
     objecttolerance="10"
     gridtolerance="10"
     guidetolerance="10"
     inkscape:pageopacity="0"
     inkscape:pageshadow="2"
     inkscape:window-width="725"
     inkscape:window-height="480"
     id="namedview117"
     showgrid="false"
     inkscape:zoom="0.2668352"
     inkscape:cx="498.435"
     inkscape:cy="160.455"
     inkscape:window-x="0"
     inkscape:window-y="0"
     inkscape:window-maximized="0"
     inkscape:current-layer="svg2" /><style
     id="style4"
     type="text/css">
	.st0{display:none;}
	.st1{display:inline;}
	.st2{fill:none;}
	.st3{fill:#0A1241;}
	.st4{font-family:'HelveticaNeue-Bold';}
	.st5{font-size:8px;}
	.st6{font-family:'HelveticaNeue';}
	.st7{font-size:7px;}
	.st8{font-family:'HelveticaNeue-Light';}
	.st9{fill:#1A3990;}
	.st10{opacity:0.8;fill:#5DAD3A;}
	.st11{opacity:0.8;fill:#E3E246;}
	.st12{opacity:0.7;fill:#0063AB;}
	.st13{fill:none;stroke:#1D2988;stroke-dasharray:1.5;}
	.st14{fill:#60AD28;}
	.st15{fill:#E23B31;}
	.st16{display:inline;fill:#FFFFFF;}
	.st17{fill:none;stroke:#60AD28;}
	.st18{fill:none;stroke:#E23B31;stroke-width:0.9933;}
</style><g
     id="Capa_5"
     display="none"
     transform="translate(-45.631 -309.38)"
     class="st0"><g
       id="g7"
       display="inline"
       class="st1"><rect
         id="rect9"
         width="95.5"
         y="706"
         x="955.7"
         height="9.5"
         class="st2"
         fill="none" /><text
         id="text11"
         transform="translate(962.9 711.7)"
         class="st3 st4 st5"
         font-size="8px"
         font-family="HelveticaNeue-Bold"
         fill="#0a1241">MARIA FÁTIMA LUCAS</text>
</g><g
       id="g13"
       display="inline"
       class="st1"><rect
         id="rect15"
         width="82.2"
         y="718.3"
         x="968.7"
         height="9.5"
         class="st2"
         fill="none" /><text
         id="text17"
         transform="translate(984.62 723.32)"
         class="st3 st6 st7"
         font-size="7px"
         font-family="HelveticaNeue"
         fill="#0a1241">CEO and Co-founder</text>
</g><g
       id="g19"
       display="inline"
       class="st1"><rect
         id="rect21"
         width="82.2"
         y="730.7"
         x="968.7"
         height="9.5"
         class="st2"
         fill="none" /><text
         id="text23"
         transform="translate(991.73 735.65)"
         class="st3 st8 st7"
         font-size="7px"
         font-family="HelveticaNeue-Light"
         fill="#0a1241">flucas@zymvol.com</text>
</g><g
       id="g25"
       display="inline"
       class="st1"><rect
         id="rect27"
         width="82.2"
         y="743"
         x="968.7"
         height="8"
         class="st2"
         fill="none" /><text
         id="text29"
         transform="translate(1001.9 747.98)"
         class="st3 st8 st7"
         font-size="7px"
         font-family="HelveticaNeue-Light"
         fill="#0a1241">+34 617927468</text>
</g><g
       id="g31"
       display="inline"
       class="st1"><rect
         id="rect33"
         width="95.5"
         y="877.1"
         x="955.7"
         height="9.5"
         class="st2"
         fill="none" /><text
         id="text35"
         font-size="8px"
         font-family="HelveticaNeue-Bold"
         fill="#0a1241"
         transform="translate(963.48 882.79)"><tspan
           id="tspan37"
           class="st3 st4 st5"
           y="0"
           x="0">VICTOR GIL SEPÚLVE</tspan><tspan
           id="tspan39"
           class="st3 st4 st5"
           y="0"
           x="84.400002">-</tspan></text>
</g><g
       id="g41"
       display="inline"
       class="st1"><rect
         id="rect43"
         width="82.2"
         y="889.4"
         x="968.7"
         height="9.5"
         class="st2"
         fill="none" /><text
         id="text45"
         transform="translate(984.87 894.41)"
         class="st3 st6 st7"
         font-size="7px"
         font-family="HelveticaNeue"
         fill="#0a1241">CTO and Co-founder</text>
</g><g
       id="g47"
       display="inline"
       class="st1"><rect
         id="rect49"
         width="82.2"
         y="901.7"
         x="968.7"
         height="9.5"
         class="st2"
         fill="none" /><text
         id="text51"
         transform="translate(999.5 906.75)"
         class="st3 st8 st7"
         font-size="7px"
         font-family="HelveticaNeue-Light"
         fill="#0a1241">vgil@zymvol.com</text>
</g><g
       id="g53"
       display="inline"
       class="st1"><rect
         id="rect55"
         width="82.2"
         y="914.1"
         x="968.7"
         height="9.5"
         class="st2"
         fill="none" /><text
         id="text57"
         transform="translate(1001.9 919.08)"
         class="st3 st8 st7"
         font-size="7px"
         font-family="HelveticaNeue-Light"
         fill="#0a1241">+34 616601927</text>
</g><g
       id="g59"
       display="inline"
       class="st1"><rect
         id="rect61"
         width="95.5"
         y="1048.4"
         x="955.7"
         height="9.5"
         class="st2"
         fill="none" /><text
         id="text63"
         transform="translate(974.02 1054.1)"
         class="st3 st4 st5"
         font-size="8px"
         font-family="HelveticaNeue-Bold"
         fill="#0a1241">EMANUELE MONZA</text>
</g><g
       id="g65"
       display="inline"
       class="st1"><rect
         id="rect67"
         width="109.5"
         y="1061.6"
         x="941.4"
         height="15.6"
         class="st2"
         fill="none" /><text
         id="text69"
         transform="translate(985.67 1066.6)"
         class="st3 st6 st7"
         font-size="7px"
         font-family="HelveticaNeue"
         fill="#0a1241">CSO and co-founder</text>
</g><g
       id="g71"
       display="inline"
       class="st1"><rect
         id="rect73"
         width="82.2"
         y="1073.9"
         x="968.7"
         height="9.5"
         class="st2"
         fill="none" /><text
         id="text75"
         transform="translate(985.26 1078.9)"
         class="st3 st8 st7"
         font-size="7px"
         font-family="HelveticaNeue-Light"
         fill="#0a1241">emonza@zymvol.com</text>
</g><g
       id="g77"
       display="inline"
       class="st1"><rect
         id="rect79"
         width="82.2"
         y="1086.2"
         x="968.7"
         height="9.5"
         class="st2"
         fill="none" /><text
         id="text81"
         transform="translate(1001.9 1091.2)"
         class="st3 st8 st7"
         font-size="7px"
         font-family="HelveticaNeue-Light"
         fill="#0a1241">+34 695354012 </text>
</g></g><g
     id="frente"
     transform="translate(-45.631 -309.38)"
     style="fill:#ffffff"><g
       id="g84"
       fill="#fff"
       style="fill:#ffffff"><g
         id="g86"
         transform="translate(32,-52)"
         style="fill:#ffffff"><g
           id="g88"
           fill="#fff"
           style="fill:#ffffff"><path
             id="path90"
             class="st3"
             d="m64.8 620.1h-14.4v-3.2h5.6v-27.9h-5.6v-3.2h14.4v3.2h-5.6v27.8h5.6v3.3z"
             style="fill:#ffffff" /><path
             id="path92"
             class="st3"
             d="m102.1 620h-3.3v-13.7c0-4.7-2-7-6-7-2 0-3.6 0.6-4.7 1.9-1.1 1.2-1.7 2.9-1.7 4.9v13.9h-3.3v-23.7h3.3v1.9c1.7-1.4 3.8-2.2 6.4-2.2 6.1 0 9.2 3.4 9.2 10.3v13.7z"
             style="fill:#ffffff" /><path
             id="path94"
             class="st3"
             d="m173.2 610.2c0 6.7-3.3 10.1-9.9 10.1-5.6 0-9.3-2.7-11.1-8.1l3.4-1.2c0 1.9 0.9 3.4 2.6 4.5 1.5 1 3.2 1.5 5.1 1.5 4.4 0 6.6-2.2 6.6-6.6 0-1.6-1-3.2-3.1-4.9-1-0.8-3.2-2.1-6.4-3.9-2.7-1.5-4.4-2.7-5.2-3.6-0.8-1-1.2-2.3-1.2-4 0-2.5 0.9-4.6 2.7-6.1 1.7-1.4 3.9-2.2 6.4-2.2 3.8 0 6.7 1.9 8.7 5.8l-3.2 1.2c-1.4-2.5-3.2-3.7-5.5-3.7-1.6 0-2.9 0.5-4 1.4-1.2 1-1.8 2.3-1.8 3.8 0 1.4 1.4 2.9 4.1 4.4 4.6 2.6 7.2 4.1 7.6 4.5 2.9 2 4.2 4.4 4.2 7.1z"
             style="fill:#ffffff" /><path
             id="path96"
             class="st3"
             d="m201.3 620.1h-3.3v-20.4h-4.5v-3.2h7.7v23.6zm0.7-29.3c0 1.5-0.8 2.2-2.4 2.2s-2.5-0.8-2.5-2.3 0.8-2.3 2.4-2.3c1.7 0 2.5 0.8 2.5 2.4z"
             style="fill:#ffffff" /><path
             id="path98"
             class="st3"
             d="m238.4 620h-7.1v-31h-4.5v-3.2h7.7v31h3.9v3.2z"
             style="fill:#ffffff" /><path
             id="path100"
             class="st3"
             d="m271.4 620.1h-3.2v-20.4h-4.5v-3.2h7.7v23.6zm0.7-29.3c0 1.5-0.8 2.2-2.4 2.2s-2.5-0.8-2.5-2.3 0.8-2.3 2.4-2.3c1.7 0 2.5 0.8 2.5 2.4z"
             style="fill:#ffffff" /><path
             id="path102"
             class="st3"
             d="m313.3 616.8c-2.4 2.4-5.2 3.6-8.6 3.6s-6.2-1.2-8.6-3.6-3.6-5.2-3.6-8.6 1.2-6.2 3.6-8.6 5.2-3.6 8.6-3.6 6.2 1.2 8.6 3.6l-2.3 2.3c-1.8-1.8-3.9-2.7-6.1-2.7-2.4 0-4.6 0.9-6.4 2.8-1.9 1.9-2.8 4-2.8 6.4s0.9 4.4 2.7 6.2c1.8 1.7 3.9 2.6 6.3 2.6 2.5 0 4.6-0.9 6.3-2.6l2.3 2.2z"
             style="fill:#ffffff" /><path
             id="path104"
             class="st3"
             d="m350.3 608.2c0 3.6-1.1 6.6-3.4 8.9s-5.3 3.4-8.9 3.4-6.6-1.1-8.9-3.4-3.5-5.2-3.5-8.8 1.1-6.6 3.4-8.8 5.3-3.4 8.9-3.4 6.6 1.1 8.9 3.4c2.4 2.1 3.5 5.1 3.5 8.7zm-3.6 0c0-2.6-0.8-4.8-2.4-6.4s-3.7-2.5-6.3-2.5c-2.5 0-4.6 0.8-6.3 2.5-1.6 1.7-2.4 3.8-2.4 6.4s0.8 4.7 2.4 6.4c1.6 1.6 3.7 2.5 6.3 2.5s4.7-0.8 6.3-2.5 2.4-3.8 2.4-6.4z"
             style="fill:#ffffff" /><path
             id="path106"
             class="st3"
             d="m416.7 620h-17.1v-34.2h17.1v3.3h-13.9v10.5h13.9v3.3h-13.9v13.8h13.9v3.3z"
             style="fill:#ffffff" /><path
             id="path108"
             class="st3"
             d="m452.6 620h-3.3v-13.7c0-4.7-2-7-6-7-2 0-3.6 0.6-4.7 1.9-1.1 1.2-1.7 2.9-1.7 4.9v13.9h-3.3v-23.7h3.3v1.9c1.7-1.4 3.8-2.2 6.4-2.2 6.1 0 9.2 3.4 9.2 10.3v13.7z"
             style="fill:#ffffff" /><path
             id="path110"
             class="st3"
             d="m489.9 596.3-16.3 20.3h15.7v3.4h-22.7l16.6-20.4h-15v-3.2h21.7z"
             style="fill:#ffffff" /><path
             id="path112"
             class="st3"
             d="m524.5 596.3-15.1 34h-3.5l6.1-13.6-9.9-20.3h3.4l8.2 16.8 7.3-16.8h3.5z"
             style="fill:#ffffff" /><path
             id="path114"
             class="st3"
             d="m563.1 620h-3.3v-15.9c0-3.3-1.5-4.9-4.6-4.9-1.5 0-2.7 0.5-3.7 1.4s-1.5 2.1-1.5 3.5v15.9h-3.3v-15.9c0-3.3-1.6-4.9-4.9-4.9-1.5 0-2.6 0.5-3.6 1.4-0.9 0.9-1.4 2.1-1.4 3.5v15.9h-3.3v-23.7h3.3v1.3c0.9-1.2 2.5-1.8 5-1.8 3.2 0 5.5 1.4 7 4.2 1.4-2.8 3.5-4.2 6.3-4.2 2.5 0 4.4 0.8 5.8 2.3s2.1 3.5 2.1 6v15.9z"
             style="fill:#ffffff" /><path
             id="path116"
             class="st3"
             d="m595.4 609h-20.1c0.6 5.4 3.2 8.1 7.9 8.1 1.8 0 3.5-0.5 4.9-1.4 1.5-1 2.6-2.3 3.2-4l3.1 1.8c-2.3 4.6-6.1 6.9-11.3 6.9-3.5 0-6.4-1.1-8.6-3.4-2.2-2.2-3.3-5.1-3.3-8.7s1.1-6.6 3.3-8.9 5.1-3.5 8.7-3.5c3.8 0 6.8 1.2 9 3.7 2.1 2.4 3.1 5.5 3.2 9.4zm-3.6-3.3c-1.2-4.2-4-6.3-8.5-6.3-4.4 0-7.1 2.1-8 6.3h16.5z"
             style="fill:#ffffff" /><path
             id="path118"
             class="st3"
             d="m662.9 620h-3.8l-11.8-16.4-0.1 16.4h-3.2v-34.2h8.9c2.8 0 5.1 0.8 6.9 2.4s2.7 3.8 2.7 6.6c0 5.9-3.7 8.8-11.2 8.8l11.6 16.4zm-3.8-25.2c0-1.7-0.6-3.1-1.8-4.2-1.2-1-2.7-1.5-4.5-1.5h-5.6v11.2h5.6c1.6 0 3.1-0.5 4.3-1.5 1.4-1.1 2-2.4 2-4z"
             style="fill:#ffffff" /><path
             id="path120"
             class="st3"
             d="m700.5 609h-20.1c0.6 5.4 3.2 8.1 7.9 8.1 1.8 0 3.5-0.5 4.9-1.4 1.5-1 2.6-2.3 3.2-4l3.1 1.8c-2.3 4.6-6.1 6.9-11.3 6.9-3.5 0-6.4-1.1-8.6-3.4-2.2-2.2-3.3-5.1-3.3-8.7s1.1-6.6 3.3-8.9 5.1-3.5 8.7-3.5c3.8 0 6.8 1.2 9 3.7 2.1 2.4 3.2 5.5 3.2 9.4zm-3.6-3.3c-1.2-4.2-4-6.3-8.5-6.3-4.4 0-7.1 2.1-8 6.3h16.5z"
             style="fill:#ffffff" /><path
             id="path122"
             class="st3"
             d="m734.8 596.3-11.2 25.4-11.2-25.4h3.6l7.6 17.3 7.7-17.3h3.5z"
             style="fill:#ffffff" /><path
             id="path124"
             class="st3"
             d="m770.9 608.2c0 3.6-1.1 6.6-3.4 8.9s-5.3 3.4-8.9 3.4-6.6-1.1-8.9-3.4-3.5-5.2-3.5-8.8 1.1-6.6 3.4-8.8 5.3-3.4 8.9-3.4 6.6 1.1 8.9 3.4c2.4 2.1 3.5 5.1 3.5 8.7zm-3.6 0c0-2.6-0.8-4.8-2.4-6.4s-3.7-2.5-6.3-2.5c-2.5 0-4.6 0.8-6.3 2.5-1.6 1.7-2.4 3.8-2.4 6.4s0.8 4.7 2.4 6.4c1.6 1.6 3.7 2.5 6.3 2.5s4.7-0.8 6.3-2.5 2.4-3.8 2.4-6.4z"
             style="fill:#ffffff" /><path
             id="path126"
             class="st3"
             d="m799.2 620h-7.2v-31h-4.5v-3.2h7.7v31h3.9v3.2z"
             style="fill:#ffffff" /><path
             id="path128"
             class="st3"
             d="m838.1 620.1h-3.3v-1.9c-1.7 1.5-3.8 2.2-6.4 2.2-6.1 0-9.2-3.4-9.2-10.2v-13.9h3.3v13.7c0 4.7 2 7 5.9 7 2 0 3.6-0.6 4.7-1.9s1.7-2.9 1.7-4.9v-13.8h3.3v23.7z"
             style="fill:#ffffff" /><path
             id="path130"
             class="st3"
             d="m874.2 617c-2 2.1-4.5 3.1-7.4 3.1-2.8 0-5.3-1-7.4-3.1-2.1-2-3.1-4.5-3.1-7.3v-9.8h-3.1v-3.4h3.1v-10.6h3.3v10.6h5.4v3.4h-5.4v9.8c0 2 0.7 3.7 2.1 5.1s3.1 2.1 5.1 2.1 3.7-0.7 5.1-2.1l2.3 2.2z"
             style="fill:#ffffff" /><path
             id="path132"
             class="st3"
             d="m902.3 620.1h-3.3v-20.4h-4.5v-3.2h7.7v23.6zm0.8-29.3c0 1.5-0.8 2.2-2.4 2.2s-2.5-0.8-2.5-2.3 0.8-2.3 2.4-2.3 2.5 0.8 2.5 2.4z"
             style="fill:#ffffff" /><path
             id="path134"
             class="st3"
             d="m946.2 608.2c0 3.6-1.1 6.6-3.4 8.9s-5.3 3.4-8.9 3.4-6.6-1.1-8.9-3.4-3.5-5.2-3.5-8.8 1.1-6.6 3.4-8.8 5.3-3.4 8.9-3.4 6.6 1.1 8.9 3.4c2.3 2.1 3.5 5.1 3.5 8.7zm-3.6 0c0-2.6-0.8-4.8-2.4-6.4s-3.7-2.5-6.3-2.5c-2.5 0-4.6 0.8-6.3 2.5-1.6 1.7-2.4 3.8-2.4 6.4s0.8 4.7 2.4 6.4c1.6 1.6 3.7 2.5 6.3 2.5s4.7-0.8 6.3-2.5 2.4-3.8 2.4-6.4z"
             style="fill:#ffffff" /><path
             id="path136"
             class="st3"
             d="m978.3 620h-3.3v-13.7c0-4.7-2-7-6-7-2 0-3.6 0.6-4.7 1.9-1.1 1.2-1.7 2.9-1.7 4.9v13.9h-3.3v-23.7h3.3v1.9c1.7-1.4 3.8-2.2 6.4-2.2 6.1 0 9.2 3.4 9.2 10.3v13.7z"
             style="fill:#ffffff" /></g></g><g
         id="g138"
         transform="translate(32,-18)"
         style="fill:#ffffff"><path
           id="path140"
           class="st9"
           d="m170.5 401.9c1 2.2 1.2 4.6 0.9 7-0.4 2.5-1.4 4.5-3.1 6.3l-82.2 91.7h84.2v24.9h-112.2c-2.4 0-4.7-0.7-6.7-2.1-2.1-1.4-3.6-3.2-4.6-5.4-1.1-2.2-1.4-4.6-1-7s1.4-4.5 3-6.3l82.4-91.7h-84.5v-24.9h112.4c2.4 0 4.7 0.7 6.7 2.1 2.2 1.3 3.7 3.1 4.7 5.4z"
           style="fill:#ffffff" /><path
           id="path142"
           class="st9"
           d="m323.8 440.4c0 5.7-0.7 10.8-2.2 15.2-1.4 4.5-3.3 8.4-5.7 11.8s-5.1 6.3-8.3 8.8c-3.2 2.4-6.4 4.4-9.8 6s-6.8 2.7-10.3 3.4-6.8 1.1-9.8 1.1h-10.1v45.1h-25.1v-45.1h-10c-3.1 0-6.3-0.4-9.8-1.1s-6.9-1.8-10.3-3.4-6.7-3.6-9.8-6-5.9-5.3-8.3-8.8c-2.4-3.4-4.3-7.4-5.7-11.9s-2.2-9.6-2.2-15.2v-46h24.9v46c0 3.3 0.5 6.2 1.5 8.8s2.5 4.8 4.3 6.7c1.9 1.9 4.1 3.3 6.8 4.3 2.6 1 5.6 1.5 8.9 1.5h44.9c2.4-0.4 4.8-0.9 7.3-1.5s4.8-1.6 6.8-3.1 3.7-3.5 5.1-6.1c1.3-2.6 2-6.1 2-10.4v-46h24.9v45.9z"
           style="fill:#ffffff" /><path
           id="path144"
           class="st9"
           d="m506 531.7h-25.1v-81.7l-44.2 77.7c-1.1 2-2.6 3.5-4.5 4.5-2 1-4 1.5-6.3 1.5-2.2 0-4.2-0.5-6.1-1.5s-3.4-2.5-4.5-4.5l-44.2-77.7v81.8h-24.9v-126.8c0-2.9 0.8-5.4 2.5-7.7 1.7-2.2 3.9-3.7 6.7-4.5 1.3-0.3 2.7-0.4 4-0.3s2.6 0.4 3.9 0.9c1.2 0.5 2.4 1.1 3.4 2s1.9 1.9 2.6 3.1l56.7 98.5 56.7-98.5c1.5-2.4 3.5-4.1 6.1-5.2 2.6-1 5.3-1.2 8.1-0.5 2.7 0.8 4.9 2.3 6.6 4.5s2.6 4.8 2.6 7.7v126.7z"
           style="fill:#ffffff" /><path
           id="path146"
           class="st9"
           d="m672.4 394.4-65 132.5c-1 2-2.5 3.7-4.5 4.9s-4.2 1.9-6.7 1.9c-2.4 0-4.5-0.6-6.6-1.9-2-1.2-3.6-2.9-4.6-4.9l-65-132.5h27.9l48.3 98.9 48.5-98.9h27.7z"
           style="fill:#ffffff" /><path
           id="path148"
           class="st9"
           d="m827.7 476.2c0 8.4-1.4 16.1-4.3 23.1s-6.9 13.1-12 18.2-11.2 9.1-18.1 11.9c-7 2.8-14.6 4.3-22.8 4.3h-33.7c-8.2 0-15.9-1.4-22.9-4.3-7-2.8-13.1-6.8-18.2-11.9s-9.1-11.2-12-18.2-4.4-14.7-4.4-23.1v-26.2c0-8.3 1.5-16 4.4-23 2.9-7.1 6.9-13.1 12-18.2s11.2-9.1 18.2-11.9c7-2.9 14.6-4.3 22.9-4.3h33.7c8.2 0 15.9 1.4 22.8 4.3 7 2.9 13 6.8 18.1 11.9s9.1 11.1 12 18.2 4.3 14.7 4.3 23v26.2zm-24.9-26.2c0-4.9-0.8-9.4-2.3-13.4-1.6-4-3.8-7.4-6.6-10.2s-6.3-5-10.2-6.6c-4-1.6-8.4-2.3-13.2-2.3h-33.7c-4.9 0-9.3 0.8-13.3 2.3-4 1.6-7.4 3.8-10.3 6.6s-5.1 6.3-6.7 10.2c-1.6 4-2.3 8.4-2.3 13.4v26.2c0 4.9 0.8 9.4 2.3 13.4 1.6 4 3.8 7.4 6.7 10.2s6.3 5 10.3 6.6 8.4 2.3 13.3 2.3h33.5c4.9 0 9.3-0.8 13.3-2.3 4-1.6 7.4-3.8 10.3-6.6s5.1-6.3 6.7-10.2c1.6-4 2.3-8.4 2.3-13.4v-26.2z"
           style="fill:#ffffff" /><path
           id="path150"
           class="st9"
           d="m978.5 531.7h-113.6c-1.8 0-3.5-0.3-5-1-1.5-0.6-2.9-1.5-4-2.6s-2-2.4-2.6-4c-0.6-1.5-1-3.2-1-5v-124.7h24.9v112.4h101.2v24.9z"
           style="fill:#ffffff" /></g></g></g><g
     id="INSTRUCCIONES"
     display="none"
     transform="translate(-45.631 -309.38)"
     class="st0"><g
       id="Vertical_-_Reverso_1"
       display="inline"
       class="st1"><rect
         id="rect172"
         width="252"
         stroke="#1d2988"
         stroke-dasharray="1.5"
         y="632.9"
         x="-704.6"
         height="143.8"
         class="st13"
         fill="none" /><g
         id="g174"><path
           id="path176"
           class="st14"
           fill="#60ad28"
           d="m-459.3 639.8v130.3h-237.9v-130.3h237.9m1-1h-239.9v132.3h239.9v-132.3z" /></g><g
         id="g178"><path
           id="path180"
           class="st15"
           fill="#e23b31"
           d="m-444.3 624.4v160.3h-268.3v-160.3h268.3m1-1h-270.3v162.3h270.3v-162.3z" /></g></g><g
       id="Vertical_-_Anverso_1"
       display="inline"
       class="st1"><rect
         id="rect183"
         width="252"
         stroke="#1d2988"
         stroke-dasharray="1.5"
         y="633.2"
         x="-992.5"
         height="143.8"
         class="st13"
         fill="none" /><g
         id="g185"><path
           id="path187"
           class="st14"
           fill="#60ad28"
           d="m-747.3 640.1v130.3h-237.9v-130.3h237.9m1-1h-239.9v132.3h239.9v-132.3z" /></g><g
         id="g189"><path
           id="path191"
           class="st15"
           fill="#e23b31"
           d="m-732.3 624.7v160.3h-268.3v-160.3h268.3m1-1h-270.3v162.3h270.3v-162.3z" /></g></g><rect
       id="rect193"
       display="inline"
       width="200"
       y="621.7"
       x="-1253.4"
       height="250"
       class="st16"
       fill="#fff" /><g
       id="Texto"
       display="inline"
       class="st1"><rect
         id="rect196"
         width="161.8"
         y="640.2"
         x="-1230.7"
         height="186.4"
         class="st2"
         fill="none" /><text
         id="Instrucciones_x0D_Configuración_x0D_Modo_de_color:_CMYKResolución:_300ppi_x0D__x0D_Formato_del_diseño_x0D_Borde_de_sangrado:_Ampliar_el__x0D_fondo"
         transform="translate(-1230.7 649.35)"><tspan
           id="tspan199"
           font-size="12px"
           y="0"
           x="0"
           font-family="OpenSans-Bold">Instrucciones </tspan><g
           font-size="8px"
           id="g96"><tspan
             id="tspan201"
             class="st5"
             y="24"
             x="0"
             font-family="OpenSans-Bold"
             fill="#010300">Configuración</tspan><tspan
             id="tspan203"
             class="st5"
             y="33.599998"
             x="0"
             font-family="OpenSans"
             fill="#9f9e9e">Modo de color: CMYK </tspan><tspan
             id="tspan205"
             class="st5"
             y="43.200001"
             x="0"
             font-family="OpenSans"
             fill="#9f9e9e">Resolución: 300ppi</tspan><tspan
             id="tspan207"
             class="st5"
             y="62.400002"
             x="0"
             font-family="OpenSans-Bold"
             fill="#010300">Formato del diseño</tspan></g><g
           font-size="8px"
           font-family="OpenSans"
           fill="#9f9e9e"
           id="g102"><tspan
             id="tspan209"
             class="st5"
             y="72"
             x="0">Borde de sangrado: Ampliar </tspan><tspan
             id="tspan211"
             class="st5"
             y="81.599998"
             x="0">el fondo hasta el borde</tspan><tspan
             id="tspan213"
             class="st5"
             y="100.8"
             x="0">Área recortada: Indica </tspan><tspan
             id="tspan215"
             class="st5"
             y="110.4"
             x="0">las dimensiones finales </tspan><tspan
             id="tspan217"
             class="st5"
             y="120"
             x="0">impresas/recortadas</tspan><tspan
             id="tspan219"
             class="st5"
             y="139.2"
             x="0">Zona segura: Mantener todo </tspan><tspan
             id="tspan221"
             class="st5"
             y="148.8"
             x="0">el texto e imágenes dentro de esta zona</tspan></g><tspan
           id="tspan223"
           font-size="8px"
           class="st5"
           y="168"
           x="0"
           font-family="OpenSans-Bold"
           fill="#000200">ESTA CAPA ES A TÍTULO DE REFERENCIA</tspan></text>
<g
         fill="none"
         id="g112"><line
           id="line225"
           x1="-1121.2"
           class="st17"
           y1="776.4"
           stroke="#60ad28"
           x2="-1085.7"
           y2="776.4" /><line
           id="line227"
           stroke-width=".99330"
           x1="-1121.2"
           class="st18"
           y1="719.1"
           stroke="#e23b31"
           x2="-1085.7"
           y2="719.1" /><line
           id="line229"
           x1="-1121.2"
           class="st13"
           y1="748.6"
           stroke="#1d2988"
           stroke-dasharray="1.5"
           x2="-1085.7"
           y2="748.6" /></g></g></g></svg>