<?xml version="1.0" encoding="UTF-8" standalone="no"?>
<!-- Generator: Adobe Illustrator 21.0.0, SVG Export Plug-In . SVG Version: 6.00 Build 0)  -->

<svg
   xmlns:dc="http://purl.org/dc/elements/1.1/"
   xmlns:cc="http://creativecommons.org/ns#"
   xmlns:rdf="http://www.w3.org/1999/02/22-rdf-syntax-ns#"
   xmlns:svg="http://www.w3.org/2000/svg"
   xmlns="http://www.w3.org/2000/svg"
   xmlns:sodipodi="http://sodipodi.sourceforge.net/DTD/sodipodi-0.dtd"
   xmlns:inkscape="http://www.inkscape.org/namespaces/inkscape"
   version="1.1"
   x="0px"
   y="0px"
   viewBox="0 0 932.86914 237.91441"
   xml:space="preserve"
   id="svg2"
   inkscape:version="0.91 r13725"
   sodipodi:docname="Zymvol-Logo-White-Legend.svg"
   width="932.86914"
   height="237.91441"><metadata
     id="metadata235"><rdf:RDF><cc:Work
         rdf:about=""><dc:format>image/svg+xml</dc:format><dc:type
           rdf:resource="http://purl.org/dc/dcmitype/StillImage" /><dc:title></dc:title></cc:Work></rdf:RDF></metadata><defs
     id="defs233" /><sodipodi:namedview
     pagecolor="#ffffff"
     bordercolor="#666666"
     borderopacity="1"
     objecttolerance="10"
     gridtolerance="10"
     guidetolerance="10"
     inkscape:pageopacity="0"
     inkscape:pageshadow="2"
     inkscape:window-width="640"
     inkscape:window-height="480"
     id="namedview231"
     showgrid="false"
     fit-margin-top="0"
     fit-margin-left="0"
     fit-margin-right="0"
     fit-margin-bottom="0"
     inkscape:zoom="0.25976562"
     inkscape:cx="466.36916"
     inkscape:cy="246.3"
     inkscape:window-x="321"
     inkscape:window-y="186"
     inkscape:window-maximized="0"
     inkscape:current-layer="g84" /><style
     type="text/css"
     id="style4">
	.st0{display:none;}
	.st1{display:inline;}
	.st2{fill:none;}
	.st3{fill:#0A1241;}
	.st4{font-family:'HelveticaNeue-Bold';}
	.st5{font-size:8px;}
	.st6{font-family:'HelveticaNeue';}
	.st7{font-size:7px;}
	.st8{font-family:'HelveticaNeue-Light';}
	.st9{fill:#1A3990;}
	.st10{opacity:0.8;fill:#5DAD3A;}
	.st11{opacity:0.8;fill:#E3E246;}
	.st12{opacity:0.7;fill:#0063AB;}
	.st13{fill:none;stroke:#1D2988;stroke-dasharray:1.5;}
	.st14{fill:#60AD28;}
	.st15{fill:#E23B31;}
	.st16{display:inline;fill:#FFFFFF;}
	.st17{fill:none;stroke:#60AD28;}
	.st18{fill:none;stroke:#E23B31;stroke-width:0.9933;}
</style><g
     id="Capa_5"
     class="st0"
     style="display:none"
     transform="translate(-45.630835,-392.38559)"><g
       class="st1"
       id="g7"
       style="display:inline"><rect
         x="955.70001"
         y="706"
         class="st2"
         width="95.5"
         height="9.5"
         id="rect9"
         style="fill:none" /><text
         transform="translate(962.8998,711.6995)"
         class="st3 st4 st5"
         id="text11"
         style="font-size:8px;font-family:HelveticaNeue-Bold;fill:#0a1241">MARIA FÁTIMA LUCAS</text>
</g><g
       class="st1"
       id="g13"
       style="display:inline"><rect
         x="968.70001"
         y="718.29999"
         class="st2"
         width="82.199997"
         height="9.5"
         id="rect15"
         style="fill:none" /><text
         transform="translate(984.6156,723.3183)"
         class="st3 st6 st7"
         id="text17"
         style="font-size:7px;font-family:HelveticaNeue;fill:#0a1241">CEO and Co-founder</text>
</g><g
       class="st1"
       id="g19"
       style="display:inline"><rect
         x="968.70001"
         y="730.70001"
         class="st2"
         width="82.199997"
         height="9.5"
         id="rect21"
         style="fill:none" /><text
         transform="translate(991.7269,735.6514)"
         class="st3 st8 st7"
         id="text23"
         style="font-size:7px;font-family:HelveticaNeue-Light;fill:#0a1241">flucas@zymvol.com</text>
</g><g
       class="st1"
       id="g25"
       style="display:inline"><rect
         x="968.70001"
         y="743"
         class="st2"
         width="82.199997"
         height="8"
         id="rect27"
         style="fill:none" /><text
         transform="translate(1001.9105,747.9841)"
         class="st3 st8 st7"
         id="text29"
         style="font-size:7px;font-family:HelveticaNeue-Light;fill:#0a1241">+34 617927468</text>
</g><g
       class="st1"
       id="g31"
       style="display:inline"><rect
         x="955.70001"
         y="877.09998"
         class="st2"
         width="95.5"
         height="9.5"
         id="rect33"
         style="fill:none" /><text
         transform="translate(963.476,882.7944)"
         id="text35"><tspan
           x="0"
           y="0"
           class="st3 st4 st5"
           id="tspan37"
           style="font-size:8px;font-family:HelveticaNeue-Bold;fill:#0a1241">VICTOR GIL SEPÚLVE</tspan><tspan
           x="84.400002"
           y="0"
           class="st3 st4 st5"
           id="tspan39"
           style="font-size:8px;font-family:HelveticaNeue-Bold;fill:#0a1241">-</tspan></text>
</g><g
       class="st1"
       id="g41"
       style="display:inline"><rect
         x="968.70001"
         y="889.40002"
         class="st2"
         width="82.199997"
         height="9.5"
         id="rect43"
         style="fill:none" /><text
         transform="translate(984.8744,894.4132)"
         class="st3 st6 st7"
         id="text45"
         style="font-size:7px;font-family:HelveticaNeue;fill:#0a1241">CTO and Co-founder</text>
</g><g
       class="st1"
       id="g47"
       style="display:inline"><rect
         x="968.70001"
         y="901.70001"
         class="st2"
         width="82.199997"
         height="9.5"
         id="rect49"
         style="fill:none" /><text
         transform="translate(999.5043,906.7463)"
         class="st3 st8 st7"
         id="text51"
         style="font-size:7px;font-family:HelveticaNeue-Light;fill:#0a1241">vgil@zymvol.com</text>
</g><g
       class="st1"
       id="g53"
       style="display:inline"><rect
         x="968.70001"
         y="914.09998"
         class="st2"
         width="82.199997"
         height="9.5"
         id="rect55"
         style="fill:none" /><text
         transform="translate(1001.9115,919.079)"
         class="st3 st8 st7"
         id="text57"
         style="font-size:7px;font-family:HelveticaNeue-Light;fill:#0a1241">+34 616601927</text>
</g><g
       class="st1"
       id="g59"
       style="display:inline"><rect
         x="955.70001"
         y="1048.4"
         class="st2"
         width="95.5"
         height="9.5"
         id="rect61"
         style="fill:none" /><text
         transform="translate(974.0151,1054.1223)"
         class="st3 st4 st5"
         id="text63"
         style="font-size:8px;font-family:HelveticaNeue-Bold;fill:#0a1241">EMANUELE MONZA</text>
</g><g
       class="st1"
       id="g65"
       style="display:inline"><rect
         x="941.40002"
         y="1061.6"
         class="st2"
         width="109.5"
         height="15.6"
         id="rect67"
         style="fill:none" /><text
         transform="translate(985.6704,1066.5779)"
         class="st3 st6 st7"
         id="text69"
         style="font-size:7px;font-family:HelveticaNeue;fill:#0a1241">CSO and co-founder</text>
</g><g
       class="st1"
       id="g71"
       style="display:inline"><rect
         x="968.70001"
         y="1073.9"
         class="st2"
         width="82.199997"
         height="9.5"
         id="rect73"
         style="fill:none" /><text
         transform="translate(985.2573,1078.9105)"
         class="st3 st8 st7"
         id="text75"
         style="font-size:7px;font-family:HelveticaNeue-Light;fill:#0a1241">emonza@zymvol.com</text>
</g><g
       class="st1"
       id="g77"
       style="display:inline"><rect
         x="968.70001"
         y="1086.2"
         class="st2"
         width="82.199997"
         height="9.5"
         id="rect79"
         style="fill:none" /><text
         transform="translate(1001.9312,1091.2432)"
         class="st3 st8 st7"
         id="text81"
         style="font-size:7px;font-family:HelveticaNeue-Light;fill:#0a1241">+34 695354012 </text>
</g></g><g
     id="frente"
     transform="translate(-45.630835,-392.38559)"><g
       id="g84"><g
         id="g86"
         style="fill:#ffffff"><g
           id="g88"
           style="fill:#ffffff"><path
             class="st3"
             d="m 64.8,620.1 -14.4,0 0,-3.2 5.6,0 0,-27.9 -5.6,0 0,-3.2 14.4,0 0,3.2 -5.6,0 0,27.8 5.6,0 0,3.3 z"
             id="path90"
             style="fill:#ffffff"
             inkscape:connector-curvature="0" /><path
             class="st3"
             d="m 102.1,620 -3.3,0 0,-13.7 c 0,-4.7 -2,-7 -6,-7 -2,0 -3.6,0.6 -4.7,1.9 -1.1,1.2 -1.7,2.9 -1.7,4.9 l 0,13.9 -3.3,0 0,-23.7 3.3,0 0,1.9 c 1.7,-1.4 3.8,-2.2 6.4,-2.2 6.1,0 9.2,3.4 9.2,10.3 l 0,13.7 z"
             id="path92"
             style="fill:#ffffff"
             inkscape:connector-curvature="0" /><path
             class="st3"
             d="m 173.2,610.2 c 0,6.7 -3.3,10.1 -9.9,10.1 -5.6,0 -9.3,-2.7 -11.1,-8.1 l 3.4,-1.2 c 0,1.9 0.9,3.4 2.6,4.5 1.5,1 3.2,1.5 5.1,1.5 4.4,0 6.6,-2.2 6.6,-6.6 0,-1.6 -1,-3.2 -3.1,-4.9 -1,-0.8 -3.2,-2.1 -6.4,-3.9 -2.7,-1.5 -4.4,-2.7 -5.2,-3.6 -0.8,-1 -1.2,-2.3 -1.2,-4 0,-2.5 0.9,-4.6 2.7,-6.1 1.7,-1.4 3.9,-2.2 6.4,-2.2 3.8,0 6.7,1.9 8.7,5.8 l -3.2,1.2 c -1.4,-2.5 -3.2,-3.7 -5.5,-3.7 -1.6,0 -2.9,0.5 -4,1.4 -1.2,1 -1.8,2.3 -1.8,3.8 0,1.4 1.4,2.9 4.1,4.4 4.6,2.6 7.2,4.1 7.6,4.5 2.9,2 4.2,4.4 4.2,7.1 z"
             id="path94"
             style="fill:#ffffff"
             inkscape:connector-curvature="0" /><path
             class="st3"
             d="m 201.3,620.1 -3.3,0 0,-20.4 -4.5,0 0,-3.2 7.7,0 0,23.6 z m 0.7,-29.3 c 0,1.5 -0.8,2.2 -2.4,2.2 -1.6,0 -2.5,-0.8 -2.5,-2.3 0,-1.5 0.8,-2.3 2.4,-2.3 1.7,0 2.5,0.8 2.5,2.4 z"
             id="path96"
             style="fill:#ffffff"
             inkscape:connector-curvature="0" /><path
             class="st3"
             d="m 238.4,620 -7.1,0 0,-31 -4.5,0 0,-3.2 7.7,0 0,31 3.9,0 0,3.2 z"
             id="path98"
             style="fill:#ffffff"
             inkscape:connector-curvature="0" /><path
             class="st3"
             d="m 271.4,620.1 -3.2,0 0,-20.4 -4.5,0 0,-3.2 7.7,0 0,23.6 z m 0.7,-29.3 c 0,1.5 -0.8,2.2 -2.4,2.2 -1.6,0 -2.5,-0.8 -2.5,-2.3 0,-1.5 0.8,-2.3 2.4,-2.3 1.7,0 2.5,0.8 2.5,2.4 z"
             id="path100"
             style="fill:#ffffff"
             inkscape:connector-curvature="0" /><path
             class="st3"
             d="m 313.3,616.8 c -2.4,2.4 -5.2,3.6 -8.6,3.6 -3.4,0 -6.2,-1.2 -8.6,-3.6 -2.4,-2.4 -3.6,-5.2 -3.6,-8.6 0,-3.4 1.2,-6.2 3.6,-8.6 2.4,-2.4 5.2,-3.6 8.6,-3.6 3.4,0 6.2,1.2 8.6,3.6 l -2.3,2.3 c -1.8,-1.8 -3.9,-2.7 -6.1,-2.7 -2.4,0 -4.6,0.9 -6.4,2.8 -1.9,1.9 -2.8,4 -2.8,6.4 0,2.4 0.9,4.4 2.7,6.2 1.8,1.7 3.9,2.6 6.3,2.6 2.5,0 4.6,-0.9 6.3,-2.6 l 2.3,2.2 z"
             id="path102"
             style="fill:#ffffff"
             inkscape:connector-curvature="0" /><path
             class="st3"
             d="m 350.3,608.2 c 0,3.6 -1.1,6.6 -3.4,8.9 -2.3,2.3 -5.3,3.4 -8.9,3.4 -3.6,0 -6.6,-1.1 -8.9,-3.4 -2.3,-2.3 -3.5,-5.2 -3.5,-8.8 0,-3.6 1.1,-6.6 3.4,-8.8 2.3,-2.2 5.3,-3.4 8.9,-3.4 3.6,0 6.6,1.1 8.9,3.4 2.4,2.1 3.5,5.1 3.5,8.7 z m -3.6,0 c 0,-2.6 -0.8,-4.8 -2.4,-6.4 -1.6,-1.6 -3.7,-2.5 -6.3,-2.5 -2.5,0 -4.6,0.8 -6.3,2.5 -1.6,1.7 -2.4,3.8 -2.4,6.4 0,2.6 0.8,4.7 2.4,6.4 1.6,1.6 3.7,2.5 6.3,2.5 2.6,0 4.7,-0.8 6.3,-2.5 1.6,-1.7 2.4,-3.8 2.4,-6.4 z"
             id="path104"
             style="fill:#ffffff"
             inkscape:connector-curvature="0" /><path
             class="st3"
             d="m 416.7,620 -17.1,0 0,-34.2 17.1,0 0,3.3 -13.9,0 0,10.5 13.9,0 0,3.3 -13.9,0 0,13.8 13.9,0 0,3.3 z"
             id="path106"
             style="fill:#ffffff"
             inkscape:connector-curvature="0" /><path
             class="st3"
             d="m 452.6,620 -3.3,0 0,-13.7 c 0,-4.7 -2,-7 -6,-7 -2,0 -3.6,0.6 -4.7,1.9 -1.1,1.2 -1.7,2.9 -1.7,4.9 l 0,13.9 -3.3,0 0,-23.7 3.3,0 0,1.9 c 1.7,-1.4 3.8,-2.2 6.4,-2.2 6.1,0 9.2,3.4 9.2,10.3 l 0,13.7 z"
             id="path108"
             style="fill:#ffffff"
             inkscape:connector-curvature="0" /><path
             class="st3"
             d="m 489.9,596.3 -16.3,20.3 15.7,0 0,3.4 -22.7,0 16.6,-20.4 -15,0 0,-3.2 21.7,0 z"
             id="path110"
             style="fill:#ffffff"
             inkscape:connector-curvature="0" /><path
             class="st3"
             d="m 524.5,596.3 -15.1,34 -3.5,0 6.1,-13.6 -9.9,-20.3 3.4,0 8.2,16.8 7.3,-16.8 3.5,0 z"
             id="path112"
             style="fill:#ffffff"
             inkscape:connector-curvature="0" /><path
             class="st3"
             d="m 563.1,620 -3.3,0 0,-15.9 c 0,-3.3 -1.5,-4.9 -4.6,-4.9 -1.5,0 -2.7,0.5 -3.7,1.4 -1,0.9 -1.5,2.1 -1.5,3.5 l 0,15.9 -3.3,0 0,-15.9 c 0,-3.3 -1.6,-4.9 -4.9,-4.9 -1.5,0 -2.6,0.5 -3.6,1.4 -0.9,0.9 -1.4,2.1 -1.4,3.5 l 0,15.9 -3.3,0 0,-23.7 3.3,0 0,1.3 c 0.9,-1.2 2.5,-1.8 5,-1.8 3.2,0 5.5,1.4 7,4.2 1.4,-2.8 3.5,-4.2 6.3,-4.2 2.5,0 4.4,0.8 5.8,2.3 1.4,1.5 2.1,3.5 2.1,6 l 0,15.9 z"
             id="path114"
             style="fill:#ffffff"
             inkscape:connector-curvature="0" /><path
             class="st3"
             d="m 595.4,609 -20.1,0 c 0.6,5.4 3.2,8.1 7.9,8.1 1.8,0 3.5,-0.5 4.9,-1.4 1.5,-1 2.6,-2.3 3.2,-4 l 3.1,1.8 c -2.3,4.6 -6.1,6.9 -11.3,6.9 -3.5,0 -6.4,-1.1 -8.6,-3.4 -2.2,-2.2 -3.3,-5.1 -3.3,-8.7 0,-3.6 1.1,-6.6 3.3,-8.9 2.2,-2.3 5.1,-3.5 8.7,-3.5 3.8,0 6.8,1.2 9,3.7 2.1,2.4 3.1,5.5 3.2,9.4 z m -3.6,-3.3 c -1.2,-4.2 -4,-6.3 -8.5,-6.3 -4.4,0 -7.1,2.1 -8,6.3 l 16.5,0 z"
             id="path116"
             style="fill:#ffffff"
             inkscape:connector-curvature="0" /><path
             class="st3"
             d="m 662.9,620 -3.8,0 -11.8,-16.4 -0.1,16.4 -3.2,0 0,-34.2 8.9,0 c 2.8,0 5.1,0.8 6.9,2.4 1.8,1.6 2.7,3.8 2.7,6.6 0,5.9 -3.7,8.8 -11.2,8.8 l 11.6,16.4 z m -3.8,-25.2 c 0,-1.7 -0.6,-3.1 -1.8,-4.2 -1.2,-1 -2.7,-1.5 -4.5,-1.5 l -5.6,0 0,11.2 5.6,0 c 1.6,0 3.1,-0.5 4.3,-1.5 1.4,-1.1 2,-2.4 2,-4 z"
             id="path118"
             style="fill:#ffffff"
             inkscape:connector-curvature="0" /><path
             class="st3"
             d="m 700.5,609 -20.1,0 c 0.6,5.4 3.2,8.1 7.9,8.1 1.8,0 3.5,-0.5 4.9,-1.4 1.5,-1 2.6,-2.3 3.2,-4 l 3.1,1.8 c -2.3,4.6 -6.1,6.9 -11.3,6.9 -3.5,0 -6.4,-1.1 -8.6,-3.4 -2.2,-2.2 -3.3,-5.1 -3.3,-8.7 0,-3.6 1.1,-6.6 3.3,-8.9 2.2,-2.3 5.1,-3.5 8.7,-3.5 3.8,0 6.8,1.2 9,3.7 2.1,2.4 3.2,5.5 3.2,9.4 z m -3.6,-3.3 c -1.2,-4.2 -4,-6.3 -8.5,-6.3 -4.4,0 -7.1,2.1 -8,6.3 l 16.5,0 z"
             id="path120"
             style="fill:#ffffff"
             inkscape:connector-curvature="0" /><path
             class="st3"
             d="m 734.8,596.3 -11.2,25.4 -11.2,-25.4 3.6,0 7.6,17.3 7.7,-17.3 3.5,0 z"
             id="path122"
             style="fill:#ffffff"
             inkscape:connector-curvature="0" /><path
             class="st3"
             d="m 770.9,608.2 c 0,3.6 -1.1,6.6 -3.4,8.9 -2.3,2.3 -5.3,3.4 -8.9,3.4 -3.6,0 -6.6,-1.1 -8.9,-3.4 -2.3,-2.3 -3.5,-5.2 -3.5,-8.8 0,-3.6 1.1,-6.6 3.4,-8.8 2.3,-2.2 5.3,-3.4 8.9,-3.4 3.6,0 6.6,1.1 8.9,3.4 2.4,2.1 3.5,5.1 3.5,8.7 z m -3.6,0 c 0,-2.6 -0.8,-4.8 -2.4,-6.4 -1.6,-1.6 -3.7,-2.5 -6.3,-2.5 -2.5,0 -4.6,0.8 -6.3,2.5 -1.6,1.7 -2.4,3.8 -2.4,6.4 0,2.6 0.8,4.7 2.4,6.4 1.6,1.6 3.7,2.5 6.3,2.5 2.6,0 4.7,-0.8 6.3,-2.5 1.6,-1.7 2.4,-3.8 2.4,-6.4 z"
             id="path124"
             style="fill:#ffffff"
             inkscape:connector-curvature="0" /><path
             class="st3"
             d="m 799.2,620 -7.2,0 0,-31 -4.5,0 0,-3.2 7.7,0 0,31 3.9,0 0,3.2 z"
             id="path126"
             style="fill:#ffffff"
             inkscape:connector-curvature="0" /><path
             class="st3"
             d="m 838.1,620.1 -3.3,0 0,-1.9 c -1.7,1.5 -3.8,2.2 -6.4,2.2 -6.1,0 -9.2,-3.4 -9.2,-10.2 l 0,-13.9 3.3,0 0,13.7 c 0,4.7 2,7 5.9,7 2,0 3.6,-0.6 4.7,-1.9 1.1,-1.3 1.7,-2.9 1.7,-4.9 l 0,-13.8 3.3,0 0,23.7 z"
             id="path128"
             style="fill:#ffffff"
             inkscape:connector-curvature="0" /><path
             class="st3"
             d="m 874.2,617 c -2,2.1 -4.5,3.1 -7.4,3.1 -2.8,0 -5.3,-1 -7.4,-3.1 -2.1,-2 -3.1,-4.5 -3.1,-7.3 l 0,-9.8 -3.1,0 0,-3.4 3.1,0 0,-10.6 3.3,0 0,10.6 5.4,0 0,3.4 -5.4,0 0,9.8 c 0,2 0.7,3.7 2.1,5.1 1.4,1.4 3.1,2.1 5.1,2.1 2,0 3.7,-0.7 5.1,-2.1 l 2.3,2.2 z"
             id="path130"
             style="fill:#ffffff"
             inkscape:connector-curvature="0" /><path
             class="st3"
             d="m 902.3,620.1 -3.3,0 0,-20.4 -4.5,0 0,-3.2 7.7,0 0,23.6 z m 0.8,-29.3 c 0,1.5 -0.8,2.2 -2.4,2.2 -1.6,0 -2.5,-0.8 -2.5,-2.3 0,-1.5 0.8,-2.3 2.4,-2.3 1.6,0 2.5,0.8 2.5,2.4 z"
             id="path132"
             style="fill:#ffffff"
             inkscape:connector-curvature="0" /><path
             class="st3"
             d="m 946.2,608.2 c 0,3.6 -1.1,6.6 -3.4,8.9 -2.3,2.3 -5.3,3.4 -8.9,3.4 -3.6,0 -6.6,-1.1 -8.9,-3.4 -2.3,-2.3 -3.5,-5.2 -3.5,-8.8 0,-3.6 1.1,-6.6 3.4,-8.8 2.3,-2.2 5.3,-3.4 8.9,-3.4 3.6,0 6.6,1.1 8.9,3.4 2.3,2.1 3.5,5.1 3.5,8.7 z m -3.6,0 c 0,-2.6 -0.8,-4.8 -2.4,-6.4 -1.6,-1.6 -3.7,-2.5 -6.3,-2.5 -2.5,0 -4.6,0.8 -6.3,2.5 -1.6,1.7 -2.4,3.8 -2.4,6.4 0,2.6 0.8,4.7 2.4,6.4 1.6,1.6 3.7,2.5 6.3,2.5 2.6,0 4.7,-0.8 6.3,-2.5 1.6,-1.7 2.4,-3.8 2.4,-6.4 z"
             id="path134"
             style="fill:#ffffff"
             inkscape:connector-curvature="0" /><path
             class="st3"
             d="m 978.3,620 -3.3,0 0,-13.7 c 0,-4.7 -2,-7 -6,-7 -2,0 -3.6,0.6 -4.7,1.9 -1.1,1.2 -1.7,2.9 -1.7,4.9 l 0,13.9 -3.3,0 0,-23.7 3.3,0 0,1.9 c 1.7,-1.4 3.8,-2.2 6.4,-2.2 6.1,0 9.2,3.4 9.2,10.3 l 0,13.7 z"
             id="path136"
             style="fill:#ffffff"
             inkscape:connector-curvature="0" /></g></g><g
         id="g138"
         style="fill:#ffffff"><path
           class="st9"
           d="m 170.5,401.9 c 1,2.2 1.2,4.6 0.9,7 -0.4,2.5 -1.4,4.5 -3.1,6.3 l -82.2,91.7 84.2,0 0,24.9 -112.2,0 c -2.4,0 -4.7,-0.7 -6.7,-2.1 -2.1,-1.4 -3.6,-3.2 -4.6,-5.4 -1.1,-2.2 -1.4,-4.6 -1,-7 0.4,-2.4 1.4,-4.5 3,-6.3 l 82.4,-91.7 -84.5,0 0,-24.9 112.4,0 c 2.4,0 4.7,0.7 6.7,2.1 2.2,1.3 3.7,3.1 4.7,5.4 z"
           id="path140"
           style="fill:#ffffff"
           inkscape:connector-curvature="0" /><path
           class="st9"
           d="m 323.8,440.4 c 0,5.7 -0.7,10.8 -2.2,15.2 -1.4,4.5 -3.3,8.4 -5.7,11.8 -2.4,3.4 -5.1,6.3 -8.3,8.8 -3.2,2.4 -6.4,4.4 -9.8,6 -3.4,1.6 -6.8,2.7 -10.3,3.4 -3.5,0.7 -6.8,1.1 -9.8,1.1 l -10.1,0 0,45.1 -25.1,0 0,-45.1 -10,0 c -3.1,0 -6.3,-0.4 -9.8,-1.1 -3.5,-0.7 -6.9,-1.8 -10.3,-3.4 -3.4,-1.6 -6.7,-3.6 -9.8,-6 -3.1,-2.4 -5.9,-5.3 -8.3,-8.8 -2.4,-3.4 -4.3,-7.4 -5.7,-11.9 -1.4,-4.5 -2.2,-9.6 -2.2,-15.2 l 0,-46 24.9,0 0,46 c 0,3.3 0.5,6.2 1.5,8.8 1,2.6 2.5,4.8 4.3,6.7 1.9,1.9 4.1,3.3 6.8,4.3 2.6,1 5.6,1.5 8.9,1.5 l 44.9,0 c 2.4,-0.4 4.8,-0.9 7.3,-1.5 2.5,-0.6 4.8,-1.6 6.8,-3.1 2,-1.5 3.7,-3.5 5.1,-6.1 1.3,-2.6 2,-6.1 2,-10.4 l 0,-46 24.9,0 0,45.9 z"
           id="path142"
           style="fill:#ffffff"
           inkscape:connector-curvature="0" /><path
           class="st9"
           d="m 506,531.7 -25.1,0 0,-81.7 -44.2,77.7 c -1.1,2 -2.6,3.5 -4.5,4.5 -2,1 -4,1.5 -6.3,1.5 -2.2,0 -4.2,-0.5 -6.1,-1.5 -1.9,-1 -3.4,-2.5 -4.5,-4.5 l -44.2,-77.7 0,81.8 -24.9,0 0,-126.8 c 0,-2.9 0.8,-5.4 2.5,-7.7 1.7,-2.2 3.9,-3.7 6.7,-4.5 1.3,-0.3 2.7,-0.4 4,-0.3 1.3,0.1 2.6,0.4 3.9,0.9 1.2,0.5 2.4,1.1 3.4,2 1,0.9 1.9,1.9 2.6,3.1 L 426,497 482.7,398.5 c 1.5,-2.4 3.5,-4.1 6.1,-5.2 2.6,-1 5.3,-1.2 8.1,-0.5 2.7,0.8 4.9,2.3 6.6,4.5 1.7,2.2 2.6,4.8 2.6,7.7 l 0,126.7 z"
           id="path144"
           style="fill:#ffffff"
           inkscape:connector-curvature="0" /><path
           class="st9"
           d="m 672.4,394.4 -65,132.5 c -1,2 -2.5,3.7 -4.5,4.9 -2,1.2 -4.2,1.9 -6.7,1.9 -2.4,0 -4.5,-0.6 -6.6,-1.9 -2,-1.2 -3.6,-2.9 -4.6,-4.9 l -65,-132.5 27.9,0 48.3,98.9 48.5,-98.9 27.7,0 z"
           id="path146"
           style="fill:#ffffff"
           inkscape:connector-curvature="0" /><path
           class="st9"
           d="m 827.7,476.2 c 0,8.4 -1.4,16.1 -4.3,23.1 -2.9,7 -6.9,13.1 -12,18.2 -5.1,5.1 -11.2,9.1 -18.1,11.9 -7,2.8 -14.6,4.3 -22.8,4.3 l -33.7,0 c -8.2,0 -15.9,-1.4 -22.9,-4.3 -7,-2.8 -13.1,-6.8 -18.2,-11.9 -5.1,-5.1 -9.1,-11.2 -12,-18.2 -2.9,-7 -4.4,-14.7 -4.4,-23.1 l 0,-26.2 c 0,-8.3 1.5,-16 4.4,-23 2.9,-7.1 6.9,-13.1 12,-18.2 5.1,-5.1 11.2,-9.1 18.2,-11.9 7,-2.9 14.6,-4.3 22.9,-4.3 l 33.7,0 c 8.2,0 15.9,1.4 22.8,4.3 7,2.9 13,6.8 18.1,11.9 5.1,5.1 9.1,11.1 12,18.2 2.9,7.1 4.3,14.7 4.3,23 l 0,26.2 z M 802.8,450 c 0,-4.9 -0.8,-9.4 -2.3,-13.4 -1.6,-4 -3.8,-7.4 -6.6,-10.2 -2.8,-2.8 -6.3,-5 -10.2,-6.6 -4,-1.6 -8.4,-2.3 -13.2,-2.3 l -33.7,0 c -4.9,0 -9.3,0.8 -13.3,2.3 -4,1.6 -7.4,3.8 -10.3,6.6 -2.9,2.8 -5.1,6.3 -6.7,10.2 -1.6,4 -2.3,8.4 -2.3,13.4 l 0,26.2 c 0,4.9 0.8,9.4 2.3,13.4 1.6,4 3.8,7.4 6.7,10.2 2.9,2.8 6.3,5 10.3,6.6 4,1.6 8.4,2.3 13.3,2.3 l 33.5,0 c 4.9,0 9.3,-0.8 13.3,-2.3 4,-1.6 7.4,-3.8 10.3,-6.6 2.9,-2.8 5.1,-6.3 6.7,-10.2 1.6,-4 2.3,-8.4 2.3,-13.4 l 0,-26.2 z"
           id="path148"
           style="fill:#ffffff"
           inkscape:connector-curvature="0" /><path
           class="st9"
           d="m 978.5,531.7 -113.6,0 c -1.8,0 -3.5,-0.3 -5,-1 -1.5,-0.6 -2.9,-1.5 -4,-2.6 -1.1,-1.1 -2,-2.4 -2.6,-4 -0.6,-1.5 -1,-3.2 -1,-5 l 0,-124.7 24.9,0 0,112.4 101.2,0 0,24.9 z"
           id="path150"
           style="fill:#ffffff"
           inkscape:connector-curvature="0" /></g></g></g><g
     id="fondo_x5F__atras"
     transform="translate(-45.630835,-392.38559)" /><g
     id="texto"
     transform="translate(-45.630835,-392.38559)" /><g
     id="INSTRUCCIONES"
     class="st0"
     style="display:none"
     transform="translate(-45.630835,-392.38559)"><g
       id="Vertical_-_Reverso_1"
       class="st1"
       style="display:inline"><rect
         x="-704.59998"
         y="632.90002"
         class="st13"
         width="252"
         height="143.8"
         id="rect172"
         style="fill:none;stroke:#1d2988;stroke-dasharray:1.5" /><g
         id="g174"><path
           class="st14"
           d="m -459.3,639.8 0,130.3 -237.9,0 0,-130.3 237.9,0 m 1,-1 -239.9,0 0,132.3 239.9,0 0,-132.3 0,0 z"
           id="path176"
           inkscape:connector-curvature="0"
           style="fill:#60ad28" /></g><g
         id="g178"><path
           class="st15"
           d="m -444.3,624.4 0,160.3 -268.3,0 0,-160.3 268.3,0 m 1,-1 -270.3,0 0,162.3 270.3,0 0,-162.3 0,0 z"
           id="path180"
           inkscape:connector-curvature="0"
           style="fill:#e23b31" /></g></g><g
       id="Vertical_-_Anverso_1"
       class="st1"
       style="display:inline"><rect
         x="-992.5"
         y="633.20001"
         class="st13"
         width="252"
         height="143.8"
         id="rect183"
         style="fill:none;stroke:#1d2988;stroke-dasharray:1.5" /><g
         id="g185"><path
           class="st14"
           d="m -747.3,640.1 0,130.3 -237.9,0 0,-130.3 237.9,0 m 1,-1 -239.9,0 0,132.3 239.9,0 0,-132.3 0,0 z"
           id="path187"
           inkscape:connector-curvature="0"
           style="fill:#60ad28" /></g><g
         id="g189"><path
           class="st15"
           d="m -732.3,624.7 0,160.3 -268.3,0 0,-160.3 268.3,0 m 1,-1 -270.3,0 0,162.3 270.3,0 0,-162.3 0,0 z"
           id="path191"
           inkscape:connector-curvature="0"
           style="fill:#e23b31" /></g></g><rect
       x="-1253.4"
       y="621.70001"
       class="st16"
       width="200"
       height="250"
       id="rect193"
       style="display:inline;fill:#ffffff" /><g
       id="Texto"
       class="st1"
       style="display:inline"><rect
         x="-1230.7"
         y="640.20001"
         class="st2"
         width="161.8"
         height="186.39999"
         id="rect196"
         style="fill:none" /><text
         id="Instrucciones_x0D_Configuración_x0D_Modo_de_color:_CMYKResolución:_300ppi_x0D__x0D_Formato_del_diseño_x0D_Borde_de_sangrado:_Ampliar_el__x0D_fondo"
         transform="translate(-1230.7048,649.3545)"><tspan
           x="0"
           y="0"
           style="font-size:12px;font-family:OpenSans-Bold"
           id="tspan199">Instrucciones </tspan><tspan
           x="0"
           y="24"
           class="st5"
           style="font-size:8px;font-family:OpenSans-Bold;fill:#010300"
           id="tspan201">Configuración</tspan><tspan
           x="0"
           y="33.599998"
           class="st5"
           style="font-size:8px;font-family:OpenSans;fill:#9f9e9e"
           id="tspan203">Modo de color: CMYK </tspan><tspan
           x="0"
           y="43.200001"
           class="st5"
           style="font-size:8px;font-family:OpenSans;fill:#9f9e9e"
           id="tspan205">Resolución: 300ppi</tspan><tspan
           x="0"
           y="62.400002"
           class="st5"
           style="font-size:8px;font-family:OpenSans-Bold;fill:#010300"
           id="tspan207">Formato del diseño</tspan><tspan
           x="0"
           y="72"
           class="st5"
           style="font-size:8px;font-family:OpenSans;fill:#9f9e9e"
           id="tspan209">Borde de sangrado: Ampliar </tspan><tspan
           x="0"
           y="81.599998"
           class="st5"
           style="font-size:8px;font-family:OpenSans;fill:#9f9e9e"
           id="tspan211">el fondo hasta el borde</tspan><tspan
           x="0"
           y="100.8"
           class="st5"
           style="font-size:8px;font-family:OpenSans;fill:#9f9e9e"
           id="tspan213">Área recortada: Indica </tspan><tspan
           x="0"
           y="110.4"
           class="st5"
           style="font-size:8px;font-family:OpenSans;fill:#9f9e9e"
           id="tspan215">las dimensiones finales </tspan><tspan
           x="0"
           y="120"
           class="st5"
           style="font-size:8px;font-family:OpenSans;fill:#9f9e9e"
           id="tspan217">impresas/recortadas</tspan><tspan
           x="0"
           y="139.2"
           class="st5"
           style="font-size:8px;font-family:OpenSans;fill:#9f9e9e"
           id="tspan219">Zona segura: Mantener todo </tspan><tspan
           x="0"
           y="148.8"
           class="st5"
           style="font-size:8px;font-family:OpenSans;fill:#9f9e9e"
           id="tspan221">el texto e imágenes dentro de esta zona</tspan><tspan
           x="0"
           y="168"
           class="st5"
           style="font-size:8px;font-family:OpenSans-Bold;fill:#000200"
           id="tspan223">ESTA CAPA ES A TÍTULO DE REFERENCIA</tspan></text>
<line
         class="st17"
         x1="-1121.2"
         y1="776.40002"
         x2="-1085.7"
         y2="776.40002"
         id="line225"
         style="fill:none;stroke:#60ad28" /><line
         class="st18"
         x1="-1121.2"
         y1="719.09998"
         x2="-1085.7"
         y2="719.09998"
         id="line227"
         style="fill:none;stroke:#e23b31;stroke-width:0.99330002" /><line
         class="st13"
         x1="-1121.2"
         y1="748.59998"
         x2="-1085.7"
         y2="748.59998"
         id="line229"
         style="fill:none;stroke:#1d2988;stroke-dasharray:1.5" /></g></g></svg>